# xmcd
#
# Track frame offsets:
#	150
#	19212
#	36616
#	53766
#	72828
#	90092
#	109460
#	124568
#	142703
#	158076
#	176782
#	194071
#
# Disc length: 2839 seconds
#
# Revision: 0
# Processed by: cddbd v1.5.1PL0 Copyright (c) Steve Scherf et al.
# Submitted via: EasyCDDAExtractor 7.7.1.2
#
DISCID=a30b150c
DTITLE=Jimmy Wayne
DYEAR=2003
DGENRE=Country
TTITLE0=After You
TTITLE1=Are You Ever Gonna Love Me?
TTITLE2=Stay Gone
TTITLE3=Trespassin
TTITLE4=Paper Angels
TTITLE5=You Are
TTITLE6=She Runs
TTITLE7=Just A Dream
TTITLE8=Blue And Brown
TTITLE9=I Love You This Much
TTITLE10=You're The One I'm Talking To
TTITLE11=The Rabbit
EXTD=
EXTT0=
EXTT1=
EXTT2=
EXTT3=
EXTT4=
EXTT5=
EXTT6=
EXTT7=
EXTT8=
EXTT9=
EXTT10=
EXTT11=
PLAYORDER=
